<svg viewBox="0 0 100 100" xmlns="http://www.w3.org/2000/svg" width="100" height="100">

  <!-- Background circle -->
  <circle cx="50" cy="50" r="50" fill="#2A7FBF"/>

  <!-- Oar shaft -->
  <rect fill="#FFFFFF" x="46" y="8" width="8" height="72" rx="4"
        transform="rotate(-30, 50, 50)"/>

  <!-- Oar blade -->
  <ellipse fill="#FFFFFF" cx="67" cy="18" rx="13" ry="7"
           transform="rotate(-30, 67, 18)"/>

  <!-- Wave 1 -->
  <path fill="#FFFFFF"
    d="M12 66 C21 56,31 56,40 66 C49 76,59 76,68 66 C77 56,87 56,88 66 L88 80 L12 80 Z"/>

  <!-- Wave 2 -->
  <path fill="#FFFFFF" opacity="0.45"
    d="M16 76 C24 67,33 67,41 76 C49 85,58 85,66 76 C74 67,83 67,88 76 L88 88 L16 88 Z"/>

</svg>
